<svg id="visual" viewBox="0 0 900 600" width="900" height="600" xmlns="http://www.w3.org/2000/svg" xmlns:xlink="http://www.w3.org/1999/xlink" version="1.1"><g fill="none" stroke="#bd222f" stroke-width="2"><circle r="12" cx="65" cy="76"></circle><circle r="3" cx="71" cy="116"></circle><circle r="2" cx="782" cy="238"></circle><circle r="5" cx="510" cy="11"></circle><circle r="7" cx="527" cy="104"></circle><circle r="3" cx="144" cy="3"></circle><circle r="4" cx="253" cy="498"></circle><circle r="5" cx="505" cy="171"></circle><circle r="7" cx="308" cy="459"></circle><circle r="2" cx="827" cy="127"></circle><circle r="3" cx="757" cy="504"></circle><circle r="5" cx="687" cy="8"></circle><circle r="2" cx="88" cy="416"></circle><circle r="9" cx="823" cy="250"></circle><circle r="5" cx="689" cy="491"></circle><circle r="5" cx="705" cy="141"></circle><circle r="9" cx="410" cy="36"></circle><circle r="7" cx="494" cy="450"></circle><circle r="5" cx="864" cy="67"></circle><circle r="9" cx="232" cy="396"></circle><circle r="4" cx="87" cy="362"></circle><circle r="10" cx="749" cy="453"></circle><circle r="7" cx="15" cy="307"></circle><circle r="3" cx="388" cy="526"></circle><circle r="3" cx="666" cy="372"></circle><circle r="2" cx="717" cy="585"></circle><circle r="5" cx="325" cy="274"></circle></g></svg>